<?xml version="1.0" encoding="UTF-8"?>
<svg width="1080px" height="1080px" viewBox="0 0 1080 1080" version="1.1" xmlns="http://www.w3.org/2000/svg" xmlns:xlink="http://www.w3.org/1999/xlink">
    <!-- Generator: Sketch 46.2 (44496) - http://www.bohemiancoding.com/sketch -->
    <title>Untitled</title>
    <desc>Created with Sketch.</desc>
    <defs></defs>
    <g id="Page-1" stroke="none" stroke-width="1" fill="none" fill-rule="evenodd">
        <rect id="Rectangle" fill="#000000" x="0" y="0" width="1080" height="1080"></rect>
        <g id="93dfa60cfc4a0ef00f7cd076aab85edf" transform="translate(142.000000, 260.000000)" fill-rule="nonzero">
            <path d="M244.660465,300.20779 C219.208363,300.20779 191.860142,301.117679 166.813953,305.767194 C166.813953,334.557492 168.908395,364.27621 165.489636,392.864516 C164.003694,405.286076 163.358866,416.907083 156.872954,428.074071 C142.903583,452.127757 104.249639,462.623911 89.6682458,433.631622 C78.1523372,410.734292 83.4069767,378.795519 83.4069767,353.948691 L83.4069767,183.460316 L83.4069767,124.160012 C83.4069767,110.737388 82.5552988,97.2041322 89.8613793,85.2712431 C104.394952,61.5338873 146.559589,59.9718802 160.479842,85.2512293 C171.861002,105.91998 166.813953,138.433039 166.813953,161.222702 L244.660465,159.369568 C244.660465,120.136486 249.218193,76.7403384 225.71596,42.6220937 C201.537205,7.52076109 158.229522,0 118.623256,0 C102.015815,0 84.2788577,1.17488728 68.5790698,7.06933752 C53.3159637,12.7997854 39.0754272,21.0779225 28.1441088,33.3634631 C1.14174884,63.7115056 0,104.390588 0,142.691357 L0,222.376141 L0,392.864516 C0,439.039068 2.54799047,492.02945 32.4688533,529.996469 C77.3165993,586.904377 167.066028,553.759213 204.777102,505.905721 C250.943791,447.326286 244.660465,370.154352 244.660465,300.20779 L244.660465,300.20779 Z M334.413786,111.18807 C317.736098,203.639098 302.044465,296.171663 288.641891,389.158247 C282.265891,433.394421 272.492447,479.702399 272.462791,524.437066 C289.1516,524.092383 305.823728,521.166283 322.506977,520.758594 C328.76806,520.604784 340.2393,522.969383 345.484672,518.825775 C351.658642,513.948324 350.133221,496.443616 351.095181,489.22751 C354.939316,460.402003 359.143028,431.113212 361.430233,402.130188 L461.518605,402.130188 C461.62796,441.577863 471.38843,481.396164 474.493023,520.730797 C502.352807,521.926069 530.055044,526.948063 557.9,528.143335 C557.002912,484.65768 547.924526,439.61354 541.7209,396.570785 C529.1283,309.19364 515.047349,222.157471 499.374251,135.278819 C493.689602,103.767193 487.426665,72.3337699 482.057109,40.7689592 C480.657726,32.5423392 480.255519,10.9525809 473.38093,5.61092066 C466.712079,0.427147504 449.211442,3.70626902 441.130233,3.70626902 L354.016279,3.70626902 C351.165614,39.521985 340.7972,75.8091383 334.413786,111.18807 Z M543.072093,3.70626902 L543.072093,68.5659768 L628.332558,70.4191113 L628.332558,539.262142 C656.040356,544.423121 683.838974,552.184049 711.739535,555.940352 L711.739535,72.2722458 L797,74.1253803 L797,5.55940352 L543.072093,3.70626902 Z" id="Shape" fill="#DB222E"></path>
            <path d="M410.073171,85 C408.36039,106.666456 403.312878,128.446553 399.718634,149.884615 C392.785951,191.229092 385.890341,232.601377 379.912293,274.092308 C377.526634,290.658277 373.717366,307.415192 373,324.146154 C398.46,324.146154 423.662341,323.9997 449,326 C448.851707,307.993592 444.706927,290.011285 442.089561,272.238462 C436.617561,235.092946 430.502341,198.064223 424.446439,161.007692 L416.401561,112.807692 C414.861171,103.628929 414.471902,93.2722323 410.073171,85 Z" id="Shape" fill="#000000"></path>
        </g>
    </g>
</svg>